<mxfile host="app.diagrams.net" modified="2023-12-19T09:44:47.863Z" agent="Mozilla/5.0 (Macintosh; Intel Mac OS X 10_15_7) AppleWebKit/537.36 (KHTML, like Gecko) Chrome/120.0.0.0 Safari/537.36" etag="KXuoGTOTfEXdYlxjsS-t" version="21.1.2" type="github">
  <diagram id="1eVpisApiidwsX1YLVWs" name="Page-1">
    <mxGraphModel dx="2025" dy="1155" grid="1" gridSize="10" guides="1" tooltips="1" connect="1" arrows="1" fold="1" page="1" pageScale="1" pageWidth="827" pageHeight="1169" math="0" shadow="0">
      <root>
        <mxCell id="0" />
        <mxCell id="1" parent="0" />
      </root>
    </mxGraphModel>
  </diagram>
</mxfile>
